{"title":"Stonehearst Asylum 2014 BRRIP x264 AC3-FWOLF","uid":11634870,"size":1408231614,"categoryP":"video","categoryS":"movies","magnet":"?xt=urn:btih:9277c6edb1eb6e3471dff45af588b4e93006e41c&amp;dn=Stonehearst+Asylum+2014+BRRIP+x264+AC3-FWOLF&amp;tr=udp%3A%2F%2Ftracker.openbittorrent.com%3A80&amp;tr=udp%3A%2F%2Fopen.demonii.com%3A1337&amp;tr=udp%3A%2F%2Ftracker.coppersurfer.tk%3A6969&amp;tr=udp%3A%2F%2Fexodus.desync.com%3A6969","seeders":0,"leechers":0,"uploader":"TvTeam","files":7,"time":1417720337,"description":" &lt;a href=&quot;https://www.torrenting.com&quot; rel=&quot;nofollow&quot; target=&quot;_NEW&quot;&gt;https://www.torrenting.com&lt;/a&gt;\n\nSign up is OPEN - for time being. Come and have fun.\n\n------------------------------------------------------------------Stonehearst Asylum 2014 BRRIP x264 AC3-FWOLF\n\nimdb.... &lt;a href=&quot;\nhttp://www.imdb.com/title/tt1772264/&quot; rel=&quot;nofollow&quot; target=&quot;_NEW&quot;&gt;\nhttp://www.imdb.com/title/tt1772264/&lt;/a&gt;\n\n\nA recent medical school grad who takes a position \nat a mental institution soon finds himself taken \nwith one of his colleagues -- though he has no initial \nidea of a recent, horrifying staffing change.\n\n\n\nDirector: Brad Anderson\n\nWriters:  Joe Gangemi (screenplay), Edgar Allan Poe\n\n   \nStars:    Kate Beckinsale, Jim Sturgess, David Thewlis\n\n\nFormat                                   : Matroska\nFormat version                           : Version 2\nFile size                                : 1.30 GiB\nDuration                                 : 1h 52mn\nOverall bit rate                         : 1 649 Kbps\nEncoded date                             : UTC 2014-12-02 21:55:57\nWriting application                      : mkvmerge v7.0.0 ('Where We Going') 32bit built on Jun  9 2014 15:08:34\nWriting library                          : libebml v1.3.0 + libmatroska v1.4.1\n\nVideo\nID                                       : 1\nFormat                                   : AVC\nFormat/Info                              : Advanced Video Codec\nFormat profile                           : &lt;a class=&quot;__cf_email__&quot; href=&quot;/cdn-cgi/l/email-protection&quot; data-cfemail=&quot;b8f0d1dfd0f8f48c9689&quot;&gt;[email&amp;#160;protected]&lt;/a&gt;&lt;script cf-hash='f9e31' type=&quot;text/javascript&quot;&gt;\n/* &lt;![CDATA[ */!function(){try{var t=&quot;currentScript&quot;in document?document.currentScript:function(){for(var t=document.getElementsByTagName(&quot;script&quot;),e=t.length;e--;)if(t[e].getAttribute(&quot;cf-hash&quot;))return t[e]}();if(t&amp;&amp;t.previousSibling){var e,r,n,i,c=t.previousSibling,a=c.getAttribute(&quot;data-cfemail&quot;);if(a){for(e=&quot;&quot;,r=parseInt(a.substr(0,2),16),n=2;a.length-n;n+=2)i=parseInt(a.substr(n,2),16)^r,e+=String.fromCharCode(i);e=document.createTextNode(e),c.parentNode.replaceChild(e,c)}}}catch(u){}}();/* ]]&gt; */&lt;/script&gt;\nFormat settings, CABAC                   : Yes\nFormat settings, ReFrames                : 5 frames\nCodec ID                                 : V_MPEG4/ISO/AVC\nDuration                                 : 1h 52mn\nBit rate                                 : 1 200 Kbps\nWidth                                    : 720 pixels\nHeight                                   : 304 pixels\nDisplay aspect ratio                     : 2.35:1\nFrame rate mode                          : Constant\nFrame rate                               : 23.976 fps\nColor space                              : YUV\nChroma subsampling                       : 4:2:0\nBit depth                                : 8 bits\nScan type                                : Progressive\nBits/(Pixel*Frame)                       : 0.229\nStream size                              : 942 MiB (71%)\nWriting library                          : x264 core 142 r2431 ac76440\n\nLanguage                                 : English\nDefault                                  : Yes\nForced                                   : No\n\nAudio\nID                                       : 2\nFormat                                   : AC-3\nFormat/Info                              : Audio Coding 3\nMode extension                           : CM (complete main)\nFormat settings, Endianness              : Big\nCodec ID                                 : A_AC3\nDuration                                 : 1h 52mn\nBit rate mode                            : Constant\nBit rate                                 : 448 Kbps\nChannel(s)                               : 6 channels\nChannel positions                        : Front: L C R, Side: L R, LFE\nSampling rate                            : 48.0 KHz\nBit depth                                : 16 bits\nCompression mode                         : Lossy\nStream size                              : 361 MiB (27%)\nLanguage                                 : English\nDefault                                  : Yes\nForced                                   : No\n\n\n\n\n\nEncoded....................FWOLF              \n\nSource.....................720p.BluRay.x264-ROVERS (Thanks!)\n\nSample.....................Yes\n\nSubs.......................(srt)English,Greek \n\n\n\n\n\n[img]http://s14.postimg.org/ict9ikl0x/image.png[/img]\n\n\n\n\n[img]http://s16.postimg.org/9i34egs5x/image.png[/img]\n\n\n\n\n[img]http://s12.postimg.org/uhonbhuot/image.png[/img]\n\n\n\n\nGreetz To: PsiX | Blacksheep | CFR | tomcat-12...\n.....and all P2P Encoders and Groups","torrent":{"xt":"urn:btih:9277c6edb1eb6e3471dff45af588b4e93006e41c","amp;dn":"Stonehearst+Asylum+2014+BRRIP+x264+AC3-FWOLF","amp;tr":["udp%3A%2F%2Ftracker.openbittorrent.com%3A80","udp%3A%2F%2Fopen.demonii.com%3A1337","udp%3A%2F%2Ftracker.coppersurfer.tk%3A6969","udp%3A%2F%2Fexodus.desync.com%3A6969"],"infoHash":"9277c6edb1eb6e3471dff45af588b4e93006e41c","infoHashBuffer":{"type":"Buffer","data":[146,119,198,237,177,235,110,52,113,223,244,90,245,136,180,233,48,6,228,28]},"announce":[],"urlList":[]}}